<svg xmlns="http://www.w3.org/2000/svg" xmlns:xlink="http://www.w3.org/1999/xlink" viewBox="0,0,975,720" width="975" height="720" style="front-2ground: rgb(255, 255, 255); width: 100%; height: auto;"><g><rect x="1" y="284.52662004185737" height="52.85714285714289" width="13" fill="rgb(185, 185, 185)"><title>web1.local.web
5</title>
</rect><rect x="481" y="210.7142857142859" height="10.571428571428498" width="13" fill="rgb(185, 185, 185)"><title>web1.local.web/front-1
1</title>
</rect><rect x="481" y="293.00000000000006" height="10.571428571428669" width="13" fill="rgb(185, 185, 185)"><title>web1.local.web/front-2
1</title>
</rect><rect x="481" y="231.2857142857144" height="10.571428571428555" width="13" fill="rgb(185, 185, 185)"><title>web1.local.web/mobile
1</title>
</rect><rect x="481" y="272.4285714285715" height="10.571428571428555" width="13" fill="rgb(185, 185, 185)"><title>web1.local.web/back-1
1</title>
</rect><rect x="481" y="251.85714285714295" height="10.571428571428555" width="13" fill="rgb(185, 185, 185)"><title>web1.local.web/back-2
1</title>
</rect><rect x="1" y="37.962335857060665" height="52.85714285714283" width="13" fill="rgb(185, 185, 185)"><title>web2.local.web
5</title>
</rect><rect x="481" y="107.85714285714295" height="10.571428571428612" width="13" fill="rgb(185, 185, 185)"><title>web2.local.web/front-1
1</title>
</rect><rect x="481" y="5" height="10.571428571428555" width="13" fill="rgb(185, 185, 185)"><title>web2.local.web/front-2
1</title>
</rect><rect x="481" y="25.571428571428555" height="10.571428571428562" width="13" fill="rgb(185, 185, 185)"><title>web2.local.web/mobile
1</title>
</rect><rect x="481" y="128.42857142857156" height="10.571428571428555" width="13" fill="rgb(185, 185, 185)"><title>web2.local.web/back-1
1</title>
</rect><rect x="481" y="46.14285714285712" height="10.571428571428555" width="13" fill="rgb(185, 185, 185)"><title>web2.local.web/back-2
1</title>
</rect><rect x="1" y="100.8194787142035" height="52.857142857142904" width="13" fill="rgb(185, 185, 185)"><title>web3.local.web
5</title>
</rect><rect x="481" y="87.28571428571422" height="10.571428571428726" width="13" fill="rgb(185, 185, 185)"><title>web3.local.web/front-1
1</title>
</rect><rect x="481" y="149.0000000000001" height="10.571428571428555" width="13" fill="rgb(185, 185, 185)"><title>web3.local.web/front-2
1</title>
</rect><rect x="481" y="169.57142857142867" height="10.571428571428669" width="13" fill="rgb(185, 185, 185)"><title>web3.local.web/mobile
1</title>
</rect><rect x="481" y="190.14285714285734" height="10.571428571428442" width="13" fill="rgb(185, 185, 185)"><title>web3.local.web/back-1
1</title>
</rect><rect x="481" y="66.71428571428567" height="10.571428571428555" width="13" fill="rgb(185, 185, 185)"><title>web3.local.web/back-2
1</title>
</rect><rect x="1" y="393.2439638186654" height="52.85714285714289" width="13" fill="rgb(185, 185, 185)"><title>web4.local.web
5</title>
</rect><rect x="481" y="354.71428571428567" height="10.571428571428555" width="13" fill="rgb(185, 185, 185)"><title>web4.local.web/front-1
1</title>
</rect><rect x="481" y="416.42857142857133" height="10.571428571428555" width="13" fill="rgb(185, 185, 185)"><title>web4.local.web/front-2
1</title>
</rect><rect x="481" y="436.9999999999999" height="10.571428571428555" width="13" fill="rgb(185, 185, 185)"><title>web4.local.web/mobile
1</title>
</rect><rect x="481" y="334.1428571428572" height="10.571428571428442" width="13" fill="rgb(185, 185, 185)"><title>web4.local.web/back-1
1</title>
</rect><rect x="481" y="313.5714285714287" height="10.571428571428498" width="13" fill="rgb(185, 185, 185)"><title>web4.local.web/back-2
1</title>
</rect><rect x="1" y="581.815392390094" height="52.85714285714289" width="13" fill="rgb(185, 185, 185)"><title>web5.local.web
5</title>
</rect><rect x="481" y="663.2857142857143" height="10.571428571428555" width="13" fill="rgb(185, 185, 185)"><title>web5.local.web/front-1
1</title>
</rect><rect x="481" y="683.8571428571429" height="10.571428571428555" width="13" fill="rgb(185, 185, 185)"><title>web5.local.web/front-2
1</title>
</rect><rect x="481" y="704.4285714285714" height="10.571428571428555" width="13" fill="rgb(185, 185, 185)"><title>web5.local.web/mobile
1</title>
</rect><rect x="481" y="601.5714285714284" height="10.571428571428669" width="13" fill="rgb(185, 185, 185)"><title>web5.local.web/back-1
1</title>
</rect><rect x="481" y="580.9999999999999" height="10.571428571428555" width="13" fill="rgb(185, 185, 185)"><title>web5.local.web/back-2
1</title>
</rect><rect x="1" y="518.9582495329512" height="52.857142857142776" width="13" fill="rgb(185, 185, 185)"><title>web6.local.web
5</title>
</rect><rect x="481" y="560.4285714285713" height="10.571428571428555" width="13" fill="rgb(185, 185, 185)"><title>web6.local.web/front-1
1</title>
</rect><rect x="481" y="622.1428571428571" height="10.571428571428669" width="13" fill="rgb(185, 185, 185)"><title>web6.local.web/front-2
1</title>
</rect><rect x="481" y="642.7142857142858" height="10.571428571428555" width="13" fill="rgb(185, 185, 185)"><title>web6.local.web/mobile
1</title>
</rect><rect x="481" y="498.71428571428555" height="10.571428571428555" width="13" fill="rgb(185, 185, 185)"><title>web6.local.web/back-1
1</title>
</rect><rect x="481" y="478.142857142857" height="10.571428571428555" width="13" fill="rgb(185, 185, 185)"><title>web6.local.web/back-2
1</title>
</rect><rect x="1" y="456.1011066758083" height="52.85714285714289" width="13" fill="rgb(185, 185, 185)"><title>web7.local.web
5</title>
</rect><rect x="481" y="375.2857142857142" height="10.571428571428555" width="13" fill="rgb(185, 185, 185)"><title>web7.local.web/front-1
1</title>
</rect><rect x="481" y="519.2857142857141" height="10.571428571428555" width="13" fill="rgb(185, 185, 185)"><title>web7.local.web/front-2
1</title>
</rect><rect x="481" y="539.8571428571427" height="10.571428571428669" width="13" fill="rgb(185, 185, 185)"><title>web7.local.web/mobile
1</title>
</rect><rect x="481" y="457.57142857142844" height="10.571428571428555" width="13" fill="rgb(185, 185, 185)"><title>web7.local.web/back-1
1</title>
</rect><rect x="481" y="395.8571428571428" height="10.571428571428555" width="13" fill="rgb(185, 185, 185)"><title>web7.local.web/back-2
1</title>
</rect><rect x="961" y="225.2364319161062" height="84.57142857142861" width="13" fill="rgb(185, 185, 185)"><title>W1
8</title>
</rect><rect x="961" y="22.504655220138076" height="31.714285714285694" width="13" fill="rgb(185, 185, 185)"><title>W2
3</title>
</rect><rect x="961" y="162.37928905896345" height="52.85714285714275" width="13" fill="rgb(185, 185, 185)"><title>W3
5</title>
</rect><rect x="961" y="490.672788643655" height="52.85714285714283" width="13" fill="rgb(185, 185, 185)"><title>W6
5</title>
</rect><rect x="961" y="574.1013600722265" height="52.85714285714289" width="13" fill="rgb(185, 185, 185)"><title>W5
5</title>
</rect><rect x="961" y="435.5943294388112" height="10.571428571428555" width="13" fill="rgb(185, 185, 185)"><title>W4
1</title>
</rect><rect x="961" y="553.5299315007978" height="10.571428571428669" width="13" fill="rgb(185, 185, 185)"><title>W7
1</title>
</rect><rect x="961" y="319.8078604875348" height="74" width="13" fill="rgb(185, 185, 185)"><title>back-1
7</title>
</rect>
</g><g fill="none"><g stroke="darkseagreen" style="mix-blend-mode: multiply;"><path d="M15,289.81233432757165C247.5,289.81233432757165,247.5,216.00000000000017,480,216.00000000000017" stroke-width="10.571428571428571"/><title>web1.local.web → web1.local.web/front-1
1</title>
</g><g stroke="cadetblue" style="mix-blend-mode: multiply;"><path d="M15,332.09804861328587C247.5,332.09804861328587,247.5,298.28571428571433,480,298.28571428571433" stroke-width="10.571428571428571"/><title>web1.local.web → web1.local.web/front-2
1</title>
</g><g stroke="#0277BD" style="mix-blend-mode: multiply;"><path d="M15,300.3837628990002C247.5,300.3837628990002,247.5,236.57142857142867,480,236.57142857142867" stroke-width="10.571428571428571"/><title>web1.local.web → web1.local.web/mobile
1</title>
</g><g stroke="lightsteelblue" style="mix-blend-mode: multiply;"><path d="M15,321.5266200418573C247.5,321.5266200418573,247.5,277.7142857142858,480,277.7142857142858" stroke-width="10.571428571428571"/><title>web1.local.web → web1.local.web/back-1
1</title>
</g><g stroke="lightsteelblue" style="mix-blend-mode: multiply;"><path d="M15,310.95519147042876C247.5,310.95519147042876,247.5,257.1428571428572,480,257.1428571428572" stroke-width="10.571428571428571"/><title>web1.local.web → web1.local.web/back-2
1</title>
</g><g stroke="lightsteelblue" style="mix-blend-mode: multiply;"><path d="M15,74.96233585706067C247.5,74.96233585706067,247.5,113.14285714285724,480,113.14285714285724" stroke-width="10.571428571428571"/><title>web2.local.web → web2.local.web/front-1
1</title>
</g><g stroke="cornflowerblue" style="mix-blend-mode: multiply;"><path d="M15,43.24805014277495C247.5,43.24805014277495,247.5,10.285714285714285,480,10.285714285714285" stroke-width="10.571428571428571"/><title>web2.local.web → web2.local.web/front-2
1</title>
</g><g stroke="cornflowerblue" style="mix-blend-mode: multiply;"><path d="M15,53.81947871420352C247.5,53.81947871420352,247.5,30.85714285714284,480,30.85714285714284" stroke-width="10.571428571428571"/><title>web2.local.web → web2.local.web/mobile
1</title>
</g><g stroke="#0277BD" style="mix-blend-mode: multiply;"><path d="M15,85.53376442848923C247.5,85.53376442848923,247.5,133.71428571428584,480,133.71428571428584" stroke-width="10.571428571428571"/><title>web2.local.web → web2.local.web/back-1
1</title>
</g><g stroke="lightsteelblue" style="mix-blend-mode: multiply;"><path d="M15,64.3909072856321C247.5,64.3909072856321,247.5,51.4285714285714,480,51.4285714285714" stroke-width="10.571428571428571"/><title>web2.local.web → web2.local.web/back-2
1</title>
</g><g stroke="darkseagreen" style="mix-blend-mode: multiply;"><path d="M15,116.67662157134636C247.5,116.67662157134636,247.5,92.57142857142851,480,92.57142857142851" stroke-width="10.571428571428571"/><title>web3.local.web → web3.local.web/front-1
1</title>
</g><g stroke="darkseagreen" style="mix-blend-mode: multiply;"><path d="M15,127.24805014277493C247.5,127.24805014277493,247.5,154.2857142857144,480,154.2857142857144" stroke-width="10.571428571428571"/><title>web3.local.web → web3.local.web/front-2
1</title>
</g><g stroke="darkseagreen" style="mix-blend-mode: multiply;"><path d="M15,137.81947871420348C247.5,137.81947871420348,247.5,174.85714285714295,480,174.85714285714295" stroke-width="10.571428571428571"/><title>web3.local.web → web3.local.web/mobile
1</title>
</g><g stroke="#0277BD" style="mix-blend-mode: multiply;"><path d="M15,148.39090728563207C247.5,148.39090728563207,247.5,195.42857142857162,480,195.42857142857162" stroke-width="10.571428571428571"/><title>web3.local.web → web3.local.web/back-1
1</title>
</g><g stroke="cornflowerblue" style="mix-blend-mode: multiply;"><path d="M15,106.10519299991779C247.5,106.10519299991779,247.5,71.99999999999996,480,71.99999999999996" stroke-width="10.571428571428571"/><title>web3.local.web → web3.local.web/back-2
1</title>
</g><g stroke="#EF6C00" style="mix-blend-mode: multiply;"><path d="M15,419.6725352472368C247.5,419.6725352472368,247.5,359.99999999999994,480,359.99999999999994" stroke-width="10.571428571428571"/><title>web4.local.web → web4.local.web/front-1
1</title>
</g><g stroke="#EF6C00" style="mix-blend-mode: multiply;"><path d="M15,430.24396381866535C247.5,430.24396381866535,247.5,421.7142857142856,480,421.7142857142856" stroke-width="10.571428571428571"/><title>web4.local.web → web4.local.web/front-2
1</title>
</g><g stroke="burlywood" style="mix-blend-mode: multiply;"><path d="M15,440.8153923900939C247.5,440.8153923900939,247.5,442.28571428571416,480,442.28571428571416" stroke-width="10.571428571428571"/><title>web4.local.web → web4.local.web/mobile
1</title>
</g><g stroke="#0277BD" style="mix-blend-mode: multiply;"><path d="M15,409.10110667580824C247.5,409.10110667580824,247.5,339.4285714285715,480,339.4285714285715" stroke-width="10.571428571428571"/><title>web4.local.web → web4.local.web/back-1
1</title>
</g><g stroke="lightsteelblue" style="mix-blend-mode: multiply;"><path d="M15,398.5296781043797C247.5,398.5296781043797,247.5,318.857142857143,480,318.857142857143" stroke-width="10.571428571428571"/><title>web4.local.web → web4.local.web/back-2
1</title>
</g><g stroke="cadetblue" style="mix-blend-mode: multiply;"><path d="M15,608.2439638186654C247.5,608.2439638186654,247.5,668.5714285714287,480,668.5714285714287" stroke-width="10.571428571428571"/><title>web5.local.web → web5.local.web/front-1
1</title>
</g><g stroke="cadetblue" style="mix-blend-mode: multiply;"><path d="M15,618.815392390094C247.5,618.815392390094,247.5,689.1428571428572,480,689.1428571428572" stroke-width="10.571428571428571"/><title>web5.local.web → web5.local.web/front-2
1</title>
</g><g stroke="cadetblue" style="mix-blend-mode: multiply;"><path d="M15,629.3868209615225C247.5,629.3868209615225,247.5,709.7142857142858,480,709.7142857142858" stroke-width="10.571428571428571"/><title>web5.local.web → web5.local.web/mobile
1</title>
</g><g stroke="#0277BD" style="mix-blend-mode: multiply;"><path d="M15,597.6725352472369C247.5,597.6725352472369,247.5,606.8571428571428,480,606.8571428571428" stroke-width="10.571428571428571"/><title>web5.local.web → web5.local.web/back-1
1</title>
</g><g stroke="lightsteelblue" style="mix-blend-mode: multiply;"><path d="M15,587.1011066758083C247.5,587.1011066758083,247.5,586.2857142857142,480,586.2857142857142" stroke-width="10.571428571428571"/><title>web5.local.web → web5.local.web/back-2
1</title>
</g><g stroke="#EF6C00" style="mix-blend-mode: multiply;"><path d="M15,545.3868209615226C247.5,545.3868209615226,247.5,565.7142857142857,480,565.7142857142857" stroke-width="10.571428571428571"/><title>web6.local.web → web6.local.web/front-1
1</title>
</g><g stroke="#EF6C00" style="mix-blend-mode: multiply;"><path d="M15,555.9582495329512C247.5,555.9582495329512,247.5,627.4285714285714,480,627.4285714285714" stroke-width="10.571428571428571"/><title>web6.local.web → web6.local.web/front-2
1</title>
</g><g stroke="#EF6C00" style="mix-blend-mode: multiply;"><path d="M15,566.5296781043797C247.5,566.5296781043797,247.5,648.0000000000001,480,648.0000000000001" stroke-width="10.571428571428571"/><title>web6.local.web → web6.local.web/mobile
1</title>
</g><g stroke="#0277BD" style="mix-blend-mode: multiply;"><path d="M15,534.8153923900941C247.5,534.8153923900941,247.5,503.99999999999983,480,503.99999999999983" stroke-width="10.571428571428571"/><title>web6.local.web → web6.local.web/back-1
1</title>
</g><g stroke="lightsteelblue" style="mix-blend-mode: multiply;"><path d="M15,524.2439638186655C247.5,524.2439638186655,247.5,483.4285714285713,480,483.4285714285713" stroke-width="10.571428571428571"/><title>web6.local.web → web6.local.web/back-2
1</title>
</g><g stroke="darkseagreen" style="mix-blend-mode: multiply;"><path d="M15,461.3868209615226C247.5,461.3868209615226,247.5,380.5714285714285,480,380.5714285714285" stroke-width="10.571428571428571"/><title>web7.local.web → web7.local.web/front-1
1</title>
</g><g stroke="cadetblue" style="mix-blend-mode: multiply;"><path d="M15,493.10110667580824C247.5,493.10110667580824,247.5,524.5714285714284,480,524.5714285714284" stroke-width="10.571428571428571"/><title>web7.local.web → web7.local.web/front-2
1</title>
</g><g stroke="lightskyblue" style="mix-blend-mode: multiply;"><path d="M15,503.6725352472368C247.5,503.6725352472368,247.5,545.142857142857,480,545.142857142857" stroke-width="10.571428571428571"/><title>web7.local.web → web7.local.web/mobile
1</title>
</g><g stroke="#0277BD" style="mix-blend-mode: multiply;"><path d="M15,482.5296781043797C247.5,482.5296781043797,247.5,462.8571428571427,480,462.8571428571427" stroke-width="10.571428571428571"/><title>web7.local.web → web7.local.web/back-1
1</title>
</g><g stroke="lightsteelblue" style="mix-blend-mode: multiply;"><path d="M15,471.95824953295113C247.5,471.95824953295113,247.5,401.14285714285705,480,401.14285714285705" stroke-width="10.571428571428571"/><title>web7.local.web → web7.local.web/back-2
1</title>
</g><g stroke="lightsteelblue" style="mix-blend-mode: multiply;"><path d="M495,257.1428571428572C727.5,257.1428571428572,727.5,262.2364319161062,960,262.2364319161062" stroke-width="10.571428571428571"/><title>web1.local.web/back-2 → W1
1</title>
</g><g stroke="lightsteelblue" style="mix-blend-mode: multiply;"><path d="M495,51.4285714285714C727.5,51.4285714285714,727.5,230.52214620182048,960,230.52214620182048" stroke-width="10.571428571428571"/><title>web2.local.web/back-2 → W1
1</title>
</g><g stroke="lightsteelblue" style="mix-blend-mode: multiply;"><path d="M495,318.857142857143C727.5,318.857142857143,727.5,272.80786048753475,960,272.80786048753475" stroke-width="10.571428571428571"/><title>web4.local.web/back-2 → W1
1</title>
</g><g stroke="lightsteelblue" style="mix-blend-mode: multiply;"><path d="M495,586.2857142857142C727.5,586.2857142857142,727.5,304.5221462018204,960,304.5221462018204" stroke-width="10.571428571428571"/><title>web5.local.web/back-2 → W1
1</title>
</g><g stroke="lightsteelblue" style="mix-blend-mode: multiply;"><path d="M495,113.14285714285724C727.5,113.14285714285724,727.5,241.09357477324906,960,241.09357477324906" stroke-width="10.571428571428571"/><title>web2.local.web/front-1 → W1
1</title>
</g><g stroke="lightsteelblue" style="mix-blend-mode: multiply;"><path d="M495,483.4285714285713C727.5,483.4285714285713,727.5,293.95071763039186,960,293.95071763039186" stroke-width="10.571428571428571"/><title>web6.local.web/back-2 → W1
1</title>
</g><g stroke="lightsteelblue" style="mix-blend-mode: multiply;"><path d="M495,401.14285714285705C727.5,401.14285714285705,727.5,283.3792890589633,960,283.3792890589633" stroke-width="10.571428571428571"/><title>web7.local.web/back-2 → W1
1</title>
</g><g stroke="lightsteelblue" style="mix-blend-mode: multiply;"><path d="M495,236.57142857142867C727.5,236.57142857142867,727.5,251.66500334467764,960,251.66500334467764" stroke-width="10.571428571428571"/><title>web1.local.web/mobile → W1
1</title>
</g><g stroke="cornflowerblue" style="mix-blend-mode: multiply;"><path d="M495,71.99999999999996C727.5,71.99999999999996,727.5,48.9332266487095,960,48.9332266487095" stroke-width="10.571428571428571"/><title>web3.local.web/back-2 → W2
1</title>
</g><g stroke="cornflowerblue" style="mix-blend-mode: multiply;"><path d="M495,30.85714285714284C727.5,30.85714285714284,727.5,38.36179807728093,960,38.36179807728093" stroke-width="10.571428571428571"/><title>web2.local.web/mobile → W2
1</title>
</g><g stroke="cornflowerblue" style="mix-blend-mode: multiply;"><path d="M495,10.285714285714285C727.5,10.285714285714285,727.5,27.79036950585236,960,27.79036950585236" stroke-width="10.571428571428571"/><title>web2.local.web/front-2 → W2
1</title>
</g><g stroke="darkseagreen" style="mix-blend-mode: multiply;"><path d="M495,216.00000000000017C727.5,216.00000000000017,727.5,199.37928905896348,960,199.37928905896348" stroke-width="10.571428571428571"/><title>web1.local.web/front-1 → W3
1</title>
</g><g stroke="darkseagreen" style="mix-blend-mode: multiply;"><path d="M495,92.57142857142851C727.5,92.57142857142851,727.5,167.66500334467773,960,167.66500334467773" stroke-width="10.571428571428571"/><title>web3.local.web/front-1 → W3
1</title>
</g><g stroke="darkseagreen" style="mix-blend-mode: multiply;"><path d="M495,154.2857142857144C727.5,154.2857142857144,727.5,178.2364319161063,960,178.2364319161063" stroke-width="10.571428571428571"/><title>web3.local.web/front-2 → W3
1</title>
</g><g stroke="darkseagreen" style="mix-blend-mode: multiply;"><path d="M495,380.5714285714285C727.5,380.5714285714285,727.5,209.95071763039206,960,209.95071763039206" stroke-width="10.571428571428571"/><title>web7.local.web/front-1 → W3
1</title>
</g><g stroke="darkseagreen" style="mix-blend-mode: multiply;"><path d="M495,174.85714285714295C727.5,174.85714285714295,727.5,188.8078604875349,960,188.8078604875349" stroke-width="10.571428571428571"/><title>web3.local.web/mobile → W3
1</title>
</g><g stroke="burlywood" style="mix-blend-mode: multiply;"><path d="M495,442.28571428571416C727.5,442.28571428571416,727.5,440.8800437245255,960,440.8800437245255" stroke-width="10.571428571428571"/><title>web4.local.web/mobile → W4
1</title>
</g><g stroke="cadetblue" style="mix-blend-mode: multiply;"><path d="M495,298.28571428571433C727.5,298.28571428571433,727.5,579.3870743579408,960,579.3870743579408" stroke-width="10.571428571428571"/><title>web1.local.web/front-2 → W5
1</title>
</g><g stroke="cadetblue" style="mix-blend-mode: multiply;"><path d="M495,709.7142857142858C727.5,709.7142857142858,727.5,621.672788643655,960,621.672788643655" stroke-width="10.571428571428571"/><title>web5.local.web/mobile → W5
1</title>
</g><g stroke="cadetblue" style="mix-blend-mode: multiply;"><path d="M495,689.1428571428572C727.5,689.1428571428572,727.5,611.1013600722265,960,611.1013600722265" stroke-width="10.571428571428571"/><title>web5.local.web/front-2 → W5
1</title>
</g><g stroke="cadetblue" style="mix-blend-mode: multiply;"><path d="M495,524.5714285714284C727.5,524.5714285714284,727.5,589.9585029293694,960,589.9585029293694" stroke-width="10.571428571428571"/><title>web7.local.web/front-2 → W5
1</title>
</g><g stroke="cadetblue" style="mix-blend-mode: multiply;"><path d="M495,668.5714285714287C727.5,668.5714285714287,727.5,600.5299315007979,960,600.5299315007979" stroke-width="10.571428571428571"/><title>web5.local.web/front-1 → W5
1</title>
</g><g stroke="#EF6C00" style="mix-blend-mode: multiply;"><path d="M495,359.99999999999994C727.5,359.99999999999994,727.5,495.9585029293693,960,495.9585029293693" stroke-width="10.571428571428571"/><title>web4.local.web/front-1 → W6
1</title>
</g><g stroke="#EF6C00" style="mix-blend-mode: multiply;"><path d="M495,565.7142857142857C727.5,565.7142857142857,727.5,517.1013600722264,960,517.1013600722264" stroke-width="10.571428571428571"/><title>web6.local.web/front-1 → W6
1</title>
</g><g stroke="#EF6C00" style="mix-blend-mode: multiply;"><path d="M495,648.0000000000001C727.5,648.0000000000001,727.5,538.2442172150836,960,538.2442172150836" stroke-width="10.571428571428571"/><title>web6.local.web/mobile → W6
1</title>
</g><g stroke="#EF6C00" style="mix-blend-mode: multiply;"><path d="M495,421.7142857142856C727.5,421.7142857142856,727.5,506.52993150079783,960,506.52993150079783" stroke-width="10.571428571428571"/><title>web4.local.web/front-2 → W6
1</title>
</g><g stroke="#EF6C00" style="mix-blend-mode: multiply;"><path d="M495,627.4285714285714C727.5,627.4285714285714,727.5,527.672788643655,960,527.672788643655" stroke-width="10.571428571428571"/><title>web6.local.web/front-2 → W6
1</title>
</g><g stroke="lightskyblue" style="mix-blend-mode: multiply;"><path d="M495,545.142857142857C727.5,545.142857142857,727.5,558.8156457865122,960,558.8156457865122" stroke-width="10.571428571428571"/><title>web7.local.web/mobile → W7
1</title>
</g><g stroke="#0277BD" style="mix-blend-mode: multiply;"><path d="M495,277.7142857142858C727.5,277.7142857142858,727.5,346.2364319161062,960,346.2364319161062" stroke-width="10.571428571428571"/><title>web1.local.web/back-1 → back-1
1</title>
</g><g stroke="#0277BD" style="mix-blend-mode: multiply;"><path d="M495,133.71428571428584C727.5,133.71428571428584,727.5,325.0935747732491,960,325.0935747732491" stroke-width="10.571428571428571"/><title>web2.local.web/back-1 → back-1
1</title>
</g><g stroke="#0277BD" style="mix-blend-mode: multiply;"><path d="M495,195.42857142857162C727.5,195.42857142857162,727.5,335.66500334467764,960,335.66500334467764" stroke-width="10.571428571428571"/><title>web3.local.web/back-1 → back-1
1</title>
</g><g stroke="#0277BD" style="mix-blend-mode: multiply;"><path d="M495,339.4285714285715C727.5,339.4285714285715,727.5,356.80786048753475,960,356.80786048753475" stroke-width="10.571428571428571"/><title>web4.local.web/back-1 → back-1
1</title>
</g><g stroke="#0277BD" style="mix-blend-mode: multiply;"><path d="M495,606.8571428571428C727.5,606.8571428571428,727.5,388.5221462018204,960,388.5221462018204" stroke-width="10.571428571428571"/><title>web5.local.web/back-1 → back-1
1</title>
</g><g stroke="#0277BD" style="mix-blend-mode: multiply;"><path d="M495,503.99999999999983C727.5,503.99999999999983,727.5,377.95071763039186,960,377.95071763039186" stroke-width="10.571428571428571"/><title>web6.local.web/back-1 → back-1
1</title>
</g><g stroke="#0277BD" style="mix-blend-mode: multiply;"><path d="M495,462.8571428571427C727.5,462.8571428571427,727.5,367.3792890589633,960,367.3792890589633" stroke-width="10.571428571428571"/><title>web7.local.web/back-1 → back-1
1</title>
</g>
</g><g style="font: 10px sans-serif;"><text style="stroke: black;font-weight: 800;fill: white;stroke-width: 1.5px;font-size: 3em;font-family: Roboto, Helvetica, sans-serif;letter-spacing: 0px;" x="21" y="310.9551914704288" dy="0.35em" text-anchor="start">web1.local.web<tspan fill-opacity="0.7"> </tspan>
</text><text style="display: none;" x="501" y="216.00000000000014" dy="0.35em" text-anchor="start">web1.local.web/front-1<tspan fill-opacity="0.7"> 1</tspan>
</text><text style="display: none;" x="501" y="298.2857142857144" dy="0.35em" text-anchor="start">web1.local.web/front-2<tspan fill-opacity="0.7"> 1</tspan>
</text><text style="display: none;" x="501" y="236.57142857142867" dy="0.35em" text-anchor="start">web1.local.web/mobile<tspan fill-opacity="0.7"> 1</tspan>
</text><text style="display: none;" x="501" y="277.7142857142858" dy="0.35em" text-anchor="start">web1.local.web/back-1<tspan fill-opacity="0.7"> 1</tspan>
</text><text style="display: none;" x="501" y="257.1428571428572" dy="0.35em" text-anchor="start">web1.local.web/back-2<tspan fill-opacity="0.7"> 1</tspan>
</text><text style="stroke: black;font-weight: 800;fill: white;stroke-width: 1.5px;font-size: 3em;font-family: Roboto, Helvetica, sans-serif;letter-spacing: 0px;" x="21" y="64.39090728563208" dy="0.35em" text-anchor="start">web2.local.web<tspan fill-opacity="0.7"> </tspan>
</text><text style="display: none;" x="501" y="113.14285714285725" dy="0.35em" text-anchor="start">web2.local.web/front-1<tspan fill-opacity="0.7"> 1</tspan>
</text><text style="display: none;" x="501" y="10.285714285714278" dy="0.35em" text-anchor="start">web2.local.web/front-2<tspan fill-opacity="0.7"> 1</tspan>
</text><text style="display: none;" x="501" y="30.857142857142836" dy="0.35em" text-anchor="start">web2.local.web/mobile<tspan fill-opacity="0.7"> 1</tspan>
</text><text style="display: none;" x="501" y="133.71428571428584" dy="0.35em" text-anchor="start">web2.local.web/back-1<tspan fill-opacity="0.7"> 1</tspan>
</text><text style="display: none;" x="501" y="51.428571428571395" dy="0.35em" text-anchor="start">web2.local.web/back-2<tspan fill-opacity="0.7"> 1</tspan>
</text><text style="stroke: black;font-weight: 800;fill: white;stroke-width: 1.5px;font-size: 3em;font-family: Roboto, Helvetica, sans-serif;letter-spacing: 0px;" x="21" y="127.24805014277496" dy="0.35em" text-anchor="start">web3.local.web<tspan fill-opacity="0.7"> </tspan>
</text><text style="display: none;" x="501" y="92.57142857142858" dy="0.35em" text-anchor="start">web3.local.web/front-1<tspan fill-opacity="0.7"> 1</tspan>
</text><text style="display: none;" x="501" y="154.2857142857144" dy="0.35em" text-anchor="start">web3.local.web/front-2<tspan fill-opacity="0.7"> 1</tspan>
</text><text style="display: none;" x="501" y="174.857142857143" dy="0.35em" text-anchor="start">web3.local.web/mobile<tspan fill-opacity="0.7"> 1</tspan>
</text><text style="display: none;" x="501" y="195.42857142857156" dy="0.35em" text-anchor="start">web3.local.web/back-1<tspan fill-opacity="0.7"> 1</tspan>
</text><text style="display: none;" x="501" y="71.99999999999994" dy="0.35em" text-anchor="start">web3.local.web/back-2<tspan fill-opacity="0.7"> 1</tspan>
</text><text style="stroke: black;font-weight: 800;fill: white;stroke-width: 1.5px;font-size: 3em;font-family: Roboto, Helvetica, sans-serif;letter-spacing: 0px;" x="21" y="419.67253524723685" dy="0.35em" text-anchor="start">web4.local.web<tspan fill-opacity="0.7"> </tspan>
</text><text style="display: none;" x="501" y="359.99999999999994" dy="0.35em" text-anchor="start">web4.local.web/front-1<tspan fill-opacity="0.7"> 1</tspan>
</text><text style="display: none;" x="501" y="421.7142857142856" dy="0.35em" text-anchor="start">web4.local.web/front-2<tspan fill-opacity="0.7"> 1</tspan>
</text><text style="display: none;" x="501" y="442.28571428571416" dy="0.35em" text-anchor="start">web4.local.web/mobile<tspan fill-opacity="0.7"> 1</tspan>
</text><text style="display: none;" x="501" y="339.42857142857144" dy="0.35em" text-anchor="start">web4.local.web/back-1<tspan fill-opacity="0.7"> 1</tspan>
</text><text style="display: none;" x="501" y="318.857142857143" dy="0.35em" text-anchor="start">web4.local.web/back-2<tspan fill-opacity="0.7"> 1</tspan>
</text><text  style="stroke: black;font-weight: 800;fill: white;stroke-width: 1.5px;font-size: 3em;font-family: Roboto, Helvetica, sans-serif;letter-spacing: 0px;" x="21" y="608.2439638186654" dy="0.35em" text-anchor="start">web5.local.web<tspan fill-opacity="0.7"> </tspan>
</text><text style="display: none;" x="501" y="668.5714285714287" dy="0.35em" text-anchor="start">web5.local.web/front-1<tspan fill-opacity="0.7"> 1</tspan>
</text><text style="display: none;" x="501" y="689.1428571428571" dy="0.35em" text-anchor="start">web5.local.web/front-2<tspan fill-opacity="0.7"> 1</tspan>
</text><text style="display: none;" x="501" y="709.7142857142858" dy="0.35em" text-anchor="start">web5.local.web/mobile<tspan fill-opacity="0.7"> 1</tspan>
</text><text style="display: none;" x="501" y="606.8571428571428" dy="0.35em" text-anchor="start">web5.local.web/back-1<tspan fill-opacity="0.7"> 1</tspan>
</text><text style="display: none;" x="501" y="586.2857142857142" dy="0.35em" text-anchor="start">web5.local.web/back-2<tspan fill-opacity="0.7"> 1</tspan>
</text><text style="stroke: black;font-weight: 800;fill: white;stroke-width: 1.5px;font-size: 3em;font-family: Roboto, Helvetica, sans-serif;letter-spacing: 0px;" x="21" y="545.3868209615225" dy="0.35em" text-anchor="start">web6.local.web<tspan fill-opacity="0.7"> </tspan>
</text><text style="display: none;" x="501" y="565.7142857142856" dy="0.35em" text-anchor="start">web6.local.web/front-1<tspan fill-opacity="0.7"> 1</tspan>
</text><text style="display: none;" x="501" y="627.4285714285714" dy="0.35em" text-anchor="start">web6.local.web/front-2<tspan fill-opacity="0.7"> 1</tspan>
</text><text style="display: none;" x="501" y="648" dy="0.35em" text-anchor="start">web6.local.web/mobile<tspan fill-opacity="0.7"> 1</tspan>
</text><text style="display: none;" x="501" y="503.99999999999983" dy="0.35em" text-anchor="start">web6.local.web/back-1<tspan fill-opacity="0.7"> 1</tspan>
</text><text style="display: none;" x="501" y="483.4285714285713" dy="0.35em" text-anchor="start">web6.local.web/back-2<tspan fill-opacity="0.7"> 1</tspan>
</text><text style="stroke: black;font-weight: 800;fill: white;stroke-width: 1.5px;font-size: 3em;font-family: Roboto, Helvetica, sans-serif;letter-spacing: 0px;" x="21" y="482.52967810437974" dy="0.35em" text-anchor="start">web7.local.web<tspan fill-opacity="0.7"> </tspan>
</text><text style="display: none;" x="501" y="380.5714285714285" dy="0.35em" text-anchor="start">web7.local.web/front-1<tspan fill-opacity="0.7"> 1</tspan>
</text><text style="display: none;" x="501" y="524.5714285714284" dy="0.35em" text-anchor="start">web7.local.web/front-2<tspan fill-opacity="0.7"> 1</tspan>
</text><text style="display: none;" x="501" y="545.142857142857" dy="0.35em" text-anchor="start">web7.local.web/mobile<tspan fill-opacity="0.7"> 1</tspan>
</text><text style="display: none;" x="501" y="462.8571428571427" dy="0.35em" text-anchor="start">web7.local.web/back-1<tspan fill-opacity="0.7"> 1</tspan>
</text><text style="display: none;" x="501" y="401.14285714285705" dy="0.35em" text-anchor="start">web7.local.web/back-2<tspan fill-opacity="0.7"> 1</tspan>
</text><text style="stroke: black;font-weight: 800;fill: white;stroke-width: 1.5px;font-size: 3em;font-family: Roboto, Helvetica, sans-serif;letter-spacing: 0px;" x="954" y="267.52214620182053" dy="0.35em" text-anchor="end">Web1<tspan fill-opacity="0.7"> </tspan>
</text><text style="stroke: black;font-weight: 800;fill: white;stroke-width: 1.5px;font-size: 3em;font-family: Roboto, Helvetica, sans-serif;letter-spacing: 0px;" x="954" y="38.36179807728092" dy="0.35em" text-anchor="end">Web2<tspan fill-opacity="0.7"> </tspan>
</text><text style="stroke: black;font-weight: 800;fill: white;stroke-width: 1.5px;font-size: 3em;font-family: Roboto, Helvetica, sans-serif;letter-spacing: 0px;" x="954" y="188.8078604875348" dy="0.35em" text-anchor="end">Web3<tspan fill-opacity="0.7"> </tspan>
</text><text style="stroke: black;font-weight: 800;fill: white;stroke-width: 1.5px;font-size: 3em;font-family: Roboto, Helvetica, sans-serif;letter-spacing: 0px;" x="954" y="517.1013600722264" dy="0.35em" text-anchor="end">Web6<tspan fill-opacity="0.7"> </tspan>
</text><text style="stroke: black;font-weight: 800;fill: white;stroke-width: 1.5px;font-size: 3em;font-family: Roboto, Helvetica, sans-serif;letter-spacing: 0px;" x="954" y="600.5299315007979" dy="0.35em" text-anchor="end">Web5<tspan fill-opacity="0.7"> </tspan>
</text><text style="stroke: black;font-weight: 800;fill: white;stroke-width: 1.5px;font-size: 3em;font-family: Roboto, Helvetica, sans-serif;letter-spacing: 0px;" x="954" y="440.8800437245255" dy="0.35em" text-anchor="end">Web4<tspan fill-opacity="0.7"> </tspan>
</text><text style="stroke: black;font-weight: 800;fill: white;stroke-width: 1.5px;font-size: 3em;font-family: Roboto, Helvetica, sans-serif;letter-spacing: 0px;" x="954" y="558.8156457865122" dy="0.35em" text-anchor="end">Web7<tspan fill-opacity="0.7"> </tspan>
</text><text style="stroke: black;font-weight: 800;fill: white;stroke-width: 1.5px;font-size: 3em;font-family: Roboto, Helvetica, sans-serif;letter-spacing: 0px;" x="954" y="356.8078604875348" dy="0.35em" text-anchor="end">Back1<tspan fill-opacity="0.7"> </tspan>
</text>
</g>
</svg>